<svg width="70" height="70" viewBox="0 0 70 70" fill="none" xmlns="http://www.w3.org/2000/svg">
<path d="M19 53C24 59 37.5 67.4 51.5 53" stroke="#835733"/>
<circle cx="35" cy="35" r="30.5" stroke="#835733"/>
<circle cx="35" cy="35" r="34.5" stroke="#835733"/>
<path d="M10 29C11.4545 22.5119 18.4 9.43042 34.5455 9.00956C50.6909 8.58871 56.9091 22.1612 58 29" stroke="#835733"/>
<path d="M2.03574 11.0687L3.40974 10.5958L3.38462 9.14294L4.25892 10.3036L5.63291 9.83072L4.79926 11.0209L5.67356 12.1815L4.28403 11.7564L3.45038 12.9466L3.42526 11.4937L2.03574 11.0687Z" fill="#835733"/>
<path d="M64.596 10.2053L65.7872 11.0375L66.9467 10.1618L66.5234 11.5518L67.7145 12.384L66.2617 12.4109L65.8383 13.801L65.3638 12.4276L63.911 12.4545L65.0705 11.5787L64.596 10.2053Z" fill="#835733"/>
<path d="M58.1719 34C58.1792 34.1058 58.2447 34.2238 58.2785 34.3241C58.3342 34.489 58.3708 34.6578 58.4215 34.8239C58.4736 34.9945 58.5547 35.1451 58.6243 35.3074C58.6618 35.395 58.6879 35.4895 58.718 35.5799C58.7568 35.6961 58.7738 35.8253 58.8177 35.9385C58.8327 35.9775 58.838 36.1097 58.8892 36.1097" stroke="#835733" stroke-linecap="round"/>
<path d="M59.9238 34C59.9288 34.0543 59.9762 34.098 60.0024 34.143C60.0522 34.2288 60.0944 34.3252 60.1242 34.4196C60.2161 34.7101 60.3215 34.996 60.4196 35.2845C60.4639 35.4149 60.4911 35.5524 60.5245 35.686C60.5572 35.8167 60.6312 35.9146 60.6833 36.037C60.7163 36.1145 60.7417 36.2004 60.7677 36.2784" stroke="#835733" stroke-linecap="round"/>
<path d="M61.4961 34C61.4984 34.0993 61.5345 34.1952 61.5594 34.2907C61.6008 34.4493 61.6179 34.6134 61.6672 34.77C61.7904 35.1615 62.0239 35.4999 62.177 35.8776C62.228 36.0032 62.3044 36.1195 62.3353 36.2515C62.3514 36.3202 62.3573 36.3864 62.3693 36.4554C62.3788 36.5101 62.3716 36.5711 62.3716 36.6265" stroke="#835733" stroke-linecap="round"/>
<path d="M7.86719 36.8766C7.87107 36.6399 7.95009 36.3976 8.027 36.1757C8.12673 35.8879 8.18017 35.5838 8.2547 35.2889C8.30933 35.0728 8.3973 34.8625 8.48763 34.6591C8.57453 34.4634 8.69231 34.2819 8.77905 34.0867C8.79346 34.0543 8.82052 34.0298 8.83545 34" stroke="#835733" stroke-linecap="round"/>
<path d="M9.63477 36.7066C9.63477 36.4504 9.68482 36.1976 9.7309 35.9461C9.80639 35.5342 9.94078 35.1419 10.0588 34.7407C10.1125 34.558 10.1806 34.3387 10.3003 34.1861C10.335 34.1419 10.374 34.0198 10.4334 34" stroke="#835733" stroke-linecap="round"/>
<path d="M11.2988 36.4626C11.2988 35.8887 11.5924 35.3762 11.7918 34.8541C11.8832 34.6148 12.0055 34.3865 12.1061 34.1516C12.1257 34.106 12.1273 34.0385 12.153 34" stroke="#835733" stroke-linecap="round"/>
<path d="M33 51L34 48L34.5 42.5V37L32.5 35L30.851 32.9702L28.5 32.5H27.25L26.75 31.5L25 30.5L24.75 29.75L22.7539 29.8478L24.2027 29.75H24.75L25 30.5L26.75 31.5L27.25 32.5H28.5L30.851 32.9702L31 33L31.2515 29.5L31.2829 29.75L31.2176 30.5L31.5 31.5L32 32.5L33 33.5L33.5 34L34.5 34.5V35L35 29L33.3352 26.6693L33.2143 26.5L32.5 25.5L32.1769 24.9462L31 22.9286L30 21.2143L28 20L29.875 21L30 21.2143L31 22.9286L32.5 25L33.3352 26.6693L35 29V28.5L37.5 26V24.5L39 22.5L39.1559 22.3961L39 20L39.3118 22.2921L40.5 21.5L40.5839 21.4161L42.5 22L40.5 21.5L39.3118 22.2921L39.1559 22.3961L39 22.5L37.5 24.5V26L35 29L35.5 29.5L36 31.5V33.5L37.5 32L39.1559 29.5L39.3118 27.8245V29.3908V29.5L37.5 32L40 32.1316L41.9216 30.0836L43 28L42 30L41.9216 30.0836L40 32.1316L42 32.0658L44 32L44.2556 32.3556L42.1383 32.2441L43.5 34L42 32.2368L40 32.1316L38 33.5L36.5 35L36 38L36.5 40.5V43V47C36.5 47.4 36.8333 49.1667 37 50L39 52L43 52.5H42L39 52L40.5 53L37.5 52.5L38 53.5L36 52.5V53.5L35 52L33.5 53.5V52L31.5 53.5L32.7974 51.1216L33 51Z" fill="#835733"/>
<path d="M46.9334 30.3002L47 30.5L49 28.5L46.9334 30.3002Z" fill="#835733"/>
<path d="M27 52.5H30.5L32.7974 51.1216M32.5 35L34.5 37V42.5L34 48L33 51L32.7974 51.1216M32.5 35L31 33M32.5 35L30.851 32.9702M31 33L31.2515 29.5M31 33L30.851 32.9702M31 33L31.2176 30.5M28.5 32.5L27 34M28.5 32.5H27.25M28.5 32.5L30.851 32.9702M23 32.5H26M26 32.5L25 33.5M26 32.5H27.25M27.25 32.5L26.75 31.5M26 30L26.75 31.5M26.75 31.5L25 30.5L24.75 29.75M24.5 29L24.75 29.75M24.75 29.75H24.2027M24.75 29.75L22.7539 29.8478M22.5 28L23.6554 29.75H24.2027M24.2027 29.75L24 28.5M24.2027 29.75L22.7539 29.8478M20.5 30L22.7539 29.8478M22.7539 29.8478L21 28.5M22.7539 29.8478L21.5 31M31.2829 29.75L32 28.5M31.2829 29.75L31.2515 29.5M31.2829 29.75L31.2176 30.5M31 27.5L31.2515 29.5M31.2515 29.5L29.5 27.5M30.851 32.9702L28.5 30.5M28.5 30.5L27.25 29.8478M28.5 30.5L27.875 29.0811M28.5 30.5L27.25 27.6622M27.25 27.6622L27.875 29.0811M27.25 27.6622L27.5 25M27.25 27.6622L25.5 25.5M27.25 27.6622L23.5 26.5M27.875 29.0811L26.5 29L25.5 28M25.5 25.5V23.5M25.5 25.5L24 23.5M25.5 25.5L23.5 25M31.2176 30.5L31.5 31.5L32 32.5L33 33.5L33.5 34L34.5 34.5V35L35 29M35 29L33.3352 26.6693M35 29L33.2143 26.5M35 29V28.5M35 29L37.5 26M35 29L35.5 29.5L36 31.5V33.5L37.5 32M29 19.5L29.875 21M30 21.2143L30.5 19.5M30 21.2143L28 20L29.875 21M30 21.2143L29.875 21M30 21.2143L27.25 21.5M30 21.2143L31 22.9286M31 22.9286L32.5 25.5L33.2143 26.5M31 22.9286L31.5 20.5M31 22.9286L28.5 23M31 22.9286L32.5 25M32.5 25L33 22.5L32.5 19.5M32.5 25L29.5 24.5M32.5 25L33.3352 26.6693M33.3352 26.6693L33.2143 26.5M33.2143 26.5L30.851 26M35 17V19M35 24L34 20.5M35 24V19M35 24V28.5M35 19L36 17M35 19L33.5 18.5M35 19V28.5M35 28.5L37.5 26M37.5 26V24.5L39 22.5L39.1559 22.3961M37.5 26L40 24.5M40.5 21.5L41 19M40.5 21.5L40.5839 21.4161M40.5 21.5L42.5 22L40.5839 21.4161M40.5 21.5L39.3118 22.2921M42 20L40.5839 21.4161M39.3118 22.2921L41 22.5M39.3118 22.2921L39 20L39.1559 22.3961M39.3118 22.2921L39.1559 22.3961M37.5 32V30.5L37 29L37.5 28M37.5 32L39.3118 29.5V27.8245M37.5 32L39.1559 29.5M37.5 32L40 32.1316M39.3118 27.8245L40 27M39.3118 27.8245L39.1559 29.5M39.1559 29.5L40.5839 28.5M47 32.5L42 32.2368M40 32.1316L41.9216 30.0836M40 32.1316L42 32.2368M40 32.1316L42 32.0658M40 32.1316L38 33.5L36.5 35L36 38L36.5 40.5V43C36.5 44.1667 36.5 46.6 36.5 47C36.5 47.4 36.8333 49.1667 37 50L39 52M42 30H43.5M42 30L43 28M42 30L41.9216 30.0836M43 28V25M43 28L45.5 27.8245M43 28L44.9444 25.5M43 28L41.9216 30.0836M46.5 23.5L44.9444 25.5M44.9444 25.5L47 25M44.9444 25.5L44 23.5M44 32L45.1748 29.75M44 32L45.1748 33.6344M44 32L42 32.2368M44 32L42 32.0658M42 32.2368L43.5 34L42 32.0658M46 32.1316L47 30.5M47 30.5L49 30M47 30.5L46.9334 30.3002M47 30.5L49 28.5L46.9334 30.3002M46.5 29L46.9334 30.3002M39 52L42 52.5H43L39 52ZM39 52L40.5 53L37.5 52.5L38 53.5L36 52.5V53.5L35 52L33.5 53.5V52L31.5 53.5L32.7974 51.1216" stroke="#835733"/>
<path d="M10.8938 48H9.97053L12.641 40.7273H13.5501L16.2205 48H15.2972L13.1239 41.8778H13.0671L10.8938 48ZM11.2347 45.1591H14.9563V45.9403H11.2347V45.1591ZM17.3533 48V40.7273H19.8107C20.3789 40.7273 20.8453 40.8243 21.2099 41.0185C21.5745 41.2102 21.8443 41.4742 22.0195 41.8104C22.1947 42.1465 22.2823 42.5289 22.2823 42.9574C22.2823 43.3859 22.1947 43.7659 22.0195 44.0973C21.8443 44.4287 21.5756 44.6892 21.2134 44.8786C20.8512 45.0656 20.3884 45.1591 19.8249 45.1591H17.8363V44.3636H19.7965C20.1848 44.3636 20.4973 44.3068 20.734 44.1932C20.9731 44.0795 21.146 43.9186 21.2525 43.7102C21.3614 43.4995 21.4158 43.2486 21.4158 42.9574C21.4158 42.6662 21.3614 42.4117 21.2525 42.1939C21.1436 41.9761 20.9696 41.808 20.7305 41.6896C20.4914 41.5689 20.1753 41.5085 19.7823 41.5085H18.234V48H17.3533ZM20.7766 44.733L22.5664 48H21.5437L19.7823 44.733H20.7766ZM23.3521 41.5085V40.7273H28.8066V41.5085H26.5197V48H25.639V41.5085H23.3521Z" fill="#835733"/>
<path d="M42.3221 48V40.7273H43.2028V47.2188H46.5835V48H42.3221ZM48.8278 40.7273V48H47.9471V40.7273H48.8278ZM50.5936 48V40.7273H54.9544V41.5085H51.4743V43.9659H54.6277V44.7472H51.4743V48H50.5936ZM56.4627 48V40.7273H60.8519V41.5085H57.3434V43.9659H60.6246V44.7472H57.3434V47.2188H60.9087V48H56.4627Z" fill="#835733"/>
</svg>
